<svg xmlns="http://www.w3.org/2000/svg" width="188.667" height="480.219" viewBox="0 0 188.667 480.219">
  <path id="Union_6" data-name="Union 6" d="M-4182.646,479.219a3.971,3.971,0,0,1-3.968-3.968v-1.319h-10.579v1.319a3.971,3.971,0,0,1-3.967,3.968h-14.554a2.645,2.645,0,0,1-2.643-2.644v-1.01a6.053,6.053,0,0,1,1.243-3.7,6.1,6.1,0,0,1,2.13-1.762,3.44,3.44,0,0,0,1.918-3.095v-13.6a28.191,28.191,0,0,1,7.377-19.054,10.914,10.914,0,0,1-1.093-1.973,11.666,11.666,0,0,1-.8-2.568,12,12,0,0,1-.191-1.8,28.918,28.918,0,0,1-2.841-6.782,3.232,3.232,0,0,1-2.431,1.114,3.248,3.248,0,0,1-3.046-2.131l-4.644-12.77a4.43,4.43,0,0,1-.267-1.518,4.379,4.379,0,0,1,2.609-4.028,1.687,1.687,0,0,1,.171-.075l4.35-1.741,6.147-2.46a5.74,5.74,0,0,1,6.126,1.257l2.308,2.307,14.766.008,2.314-2.314a5.74,5.74,0,0,1,6.125-1.257l10.5,4.2a4.4,4.4,0,0,1,2.779,4.1,4.452,4.452,0,0,1-.266,1.518l-4.645,12.77a3.245,3.245,0,0,1-3.045,2.131,3.219,3.219,0,0,1-2.432-1.114,28.98,28.98,0,0,1-2.841,6.782,11.829,11.829,0,0,1-2.083,6.343,28.222,28.222,0,0,1,7.375,19.054v10.128a20.86,20.86,0,0,1,2.986-.717,69.587,69.587,0,0,1,20.487,0c3.668.649,5.327,1.482,5.574,2.807l2.7,9.623v3.968Zm9.26-3.777v1.133h31.743v-1.133l-2.055-7.19a18.71,18.71,0,0,1-3.573.914,62.4,62.4,0,0,1-10.244.8,62.382,62.382,0,0,1-10.243-.8,18.69,18.69,0,0,1-3.573-.914Zm-10.584-16.063v15.873a1.326,1.326,0,0,0,1.324,1.324h6.638l.028-1.687,1.516-5.3A7.949,7.949,0,0,1-4180,462.03a7.947,7.947,0,0,1,6.618-7.82v-.8a25.579,25.579,0,0,0-6.48-17.046,11.832,11.832,0,0,1-6.974,3.122l-.6,3.011a4.575,4.575,0,0,1-4.467,3.661,4.567,4.567,0,0,1-4.46-3.661l-.6-3.011a11.85,11.85,0,0,1-6.979-3.122,25.707,25.707,0,0,0-1.857,2.349,10.509,10.509,0,0,1,4.645,8.763,10.593,10.593,0,0,1-9.261,10.49v9.042a6.049,6.049,0,0,1-2.4,4.857,5.725,5.725,0,0,1-.976.607,3.445,3.445,0,0,0-1.913,3.095v1.01h14.554a1.324,1.324,0,0,0,1.317-1.324V459.378a7.946,7.946,0,0,1,7.937-7.935A7.943,7.943,0,0,1-4183.97,459.378Zm-13.223,0v11.9h10.579v-11.9a5.29,5.29,0,0,0-5.292-5.285A5.29,5.29,0,0,0-4197.193,459.378ZM-4169.8,466a48.586,48.586,0,0,0,12.285,1.319A48.59,48.59,0,0,0-4145.229,466a48.565,48.565,0,0,0-12.286-1.325A48.56,48.56,0,0,0-4169.8,466Zm-7.554-3.967a5.278,5.278,0,0,0,3.62,4.992l.348-1.209V456.92A5.3,5.3,0,0,0-4177.354,462.03Zm-33.068-8.62v1.885a7.94,7.94,0,0,0,6.611-7.819,7.861,7.861,0,0,0-3.4-6.508A25.547,25.547,0,0,0-4210.421,453.41Zm16.649-11.431a1.909,1.909,0,0,0,1.866,1.529,1.909,1.909,0,0,0,1.871-1.529l.485-2.438h-4.706Zm3.969-18.31a3.2,3.2,0,0,1,3.189,3.2,3.135,3.135,0,0,1-.937,2.253l-1.16,1.161a4.4,4.4,0,0,1-1.872,1.107v3.524a1.985,1.985,0,0,0,1.988,1.987,1.983,1.983,0,0,0,1.98-1.987v-.657h2.644v.657a4.381,4.381,0,0,1-.165,1.16,9.251,9.251,0,0,0,5.422-7.778,27.992,27.992,0,0,1-11.87-22.9v-1.564h-2.643v1.564a27.979,27.979,0,0,1-9.882,21.356c-.635.546-1.3,1.058-1.987,1.544a9.091,9.091,0,0,0,1.284,4.09,9.333,9.333,0,0,0,4.131,3.688,4.657,4.657,0,0,1-.164-1.16v-.657h2.65v.657a1.983,1.983,0,0,0,1.981,1.987,1.989,1.989,0,0,0,1.987-1.987v-3.524a4.411,4.411,0,0,1-1.871-1.107l-1.162-1.161a3.14,3.14,0,0,1-.936-2.253,3.194,3.194,0,0,1,3.188-3.2Zm-4.747,3.2a.549.549,0,0,0,.164.382l1.162,1.168a1.946,1.946,0,0,0,2.643,0l1.162-1.168a.546.546,0,0,0,.165-.382.55.55,0,0,0-.547-.553h-4.2A.549.549,0,0,0-4194.55,426.865Zm6.61-21.472a25.357,25.357,0,0,0,10.129,20.3,26.469,26.469,0,0,0,2.8-8.474l-.425-1.066a30.91,30.91,0,0,0-9.014-12.32h-3.491Zm-18.637,7.042a29.681,29.681,0,0,0-1.8,3.715l-.423,1.066a26.324,26.324,0,0,0,2.8,8.474,26.052,26.052,0,0,0,2.5-2.151,25.347,25.347,0,0,0,7.621-18.146v-1.564h-3.476A30.675,30.675,0,0,0-4206.577,412.435Zm-.164-12.354-5.464,2.184-4.453,1.783-.58.233a1.76,1.76,0,0,0-1.12,1.645,1.676,1.676,0,0,0,.109.609l4.644,12.778a.622.622,0,0,0,1.114.013l1.665-4.159c.056-.136.111-.272.171-.41a33.317,33.317,0,0,1,2.76-5.258,33.193,33.193,0,0,1,6.1-7.075l-1.673-1.673a2.99,2.99,0,0,0-2.144-.888A3.019,3.019,0,0,0-4206.74,400.081Zm26.4.668-1.673,1.673a33.493,33.493,0,0,1,9.029,12.751l1.667,4.152a.619.619,0,0,0,1.113-.02l4.644-12.77a1.626,1.626,0,0,0,.11-.609,1.753,1.753,0,0,0-1.121-1.645l-10.5-4.2a2.954,2.954,0,0,0-1.116-.216A3.061,3.061,0,0,0-4180.338,400.749Zm26.792,74.5v-2.646h2.646v2.646Zm-5.291,0v-2.646h2.646v2.646Zm-5.291,0v-2.646h2.646v2.646Zm1.321-23.823a17.224,17.224,0,0,1-10.579-15.859,17.215,17.215,0,0,1,17.2-17.2,17.214,17.214,0,0,1,17.189,17.2,17.148,17.148,0,0,1-15.953,17.135l-7.854,6.972Zm-7.937-15.859a14.579,14.579,0,0,0,9.705,13.707l.881.307v4.207l4.139-3.68.471-.022a14.5,14.5,0,0,0,13.9-14.518,14.566,14.566,0,0,0-14.545-14.546A14.57,14.57,0,0,0-4170.744,435.572Zm19.41,5.409-1.44-1.44h-6.837l-1.44,1.44a4.092,4.092,0,0,1-2.916,1.209,4.136,4.136,0,0,1-4.125-4.132,4.1,4.1,0,0,1,.826-2.485,4.084,4.084,0,0,1-.826-2.485,4.131,4.131,0,0,1,4.125-4.126,4.088,4.088,0,0,1,2.916,1.21l1.44,1.434h6.837l1.44-1.434a4.1,4.1,0,0,1,2.917-1.21,4.131,4.131,0,0,1,4.13,4.126,4.1,4.1,0,0,1-.832,2.485,4.113,4.113,0,0,1,.832,2.485,4.136,4.136,0,0,1-4.13,4.132A4.1,4.1,0,0,1-4151.334,440.981Zm-.341-4.084,2.212,2.212a1.461,1.461,0,0,0,1.046.432,1.482,1.482,0,0,0,1.481-1.483,1.488,1.488,0,0,0-.431-1.051l-1.44-1.435,1.44-1.435a1.473,1.473,0,0,0,.431-1.051,1.485,1.485,0,0,0-1.481-1.482,1.47,1.47,0,0,0-1.046.437l-2.212,2.212h-9.036l-2.207-2.212a1.48,1.48,0,0,0-1.05-.437,1.486,1.486,0,0,0-1.482,1.482,1.5,1.5,0,0,0,.431,1.051l1.441,1.435-1.441,1.435a1.516,1.516,0,0,0-.431,1.051,1.482,1.482,0,0,0,1.482,1.483,1.471,1.471,0,0,0,1.05-.432l2.207-2.212Zm-30.969-21.164a1.321,1.321,0,0,1,1.322-1.323,1.322,1.322,0,0,1,1.322,1.323,1.322,1.322,0,0,1-1.322,1.324A1.322,1.322,0,0,1-4182.644,415.733Zm-21.164,0a1.322,1.322,0,0,1,1.323-1.323,1.322,1.322,0,0,1,1.322,1.323,1.322,1.322,0,0,1-1.322,1.324A1.323,1.323,0,0,1-4203.808,415.733ZM-4203.3,294l-12.492-8.029a32.024,32.024,0,0,1-6.481.662c-16.695,0-30.278-12.9-30.278-28.759a27.8,27.8,0,0,1,.263-3.788,31.773,31.773,0,0,1-6.433.656,32.022,32.022,0,0,1-6.481-.662l-12.492,8.029a1.436,1.436,0,0,1-1.73-.145,1.438,1.438,0,0,1-.391-1.5l3.656-10.965A28.271,28.271,0,0,1-4289,225.983c0-15.857,13.583-28.759,30.278-28.759a31.609,31.609,0,0,1,14.405,3.457,1.423,1.423,0,0,1,.615,1.917,1.424,1.424,0,0,1-1.917.615,28.752,28.752,0,0,0-13.1-3.141c-15.125,0-27.43,11.623-27.43,25.911a25.525,25.525,0,0,0,12.441,21.7,1.423,1.423,0,0,1,.6,1.661l-2.728,8.183,9.587-6.163a1.426,1.426,0,0,1,1.086-.192,29.083,29.083,0,0,0,6.44.719c15.125,0,27.431-11.623,27.431-25.911a25.349,25.349,0,0,0-8.847-19.058,1.424,1.424,0,0,1-.138-2.009,1.422,1.422,0,0,1,2.008-.139,28.2,28.2,0,0,1,9.823,21.205,27.618,27.618,0,0,1-.262,3.787,32.016,32.016,0,0,1,6.432-.654c16.7,0,30.278,12.9,30.278,28.759a28.269,28.269,0,0,1-12.84,23.513l3.656,10.965a1.438,1.438,0,0,1-.391,1.5,1.427,1.427,0,0,1-.963.369A1.418,1.418,0,0,1-4203.3,294Zm-11.448-10.742,9.59,6.163-2.729-8.183a1.426,1.426,0,0,1,.6-1.661,25.527,25.527,0,0,0,12.442-21.7c0-14.288-12.307-25.911-27.431-25.911a29.06,29.06,0,0,0-7.038.862,29.519,29.519,0,0,1-19.967,20.483,24.7,24.7,0,0,0-.426,4.566c0,14.288,12.305,25.911,27.431,25.911a29.084,29.084,0,0,0,6.44-.719,1.5,1.5,0,0,1,.315-.034A1.415,1.415,0,0,1-4214.75,283.258Zm-19.2-15.891a11.687,11.687,0,0,1,11.674-11.675,11.688,11.688,0,0,1,11.676,11.675c0,5.884-4.365,9.4-11.676,9.4S-4233.949,273.251-4233.949,267.367Zm2.848,0c0,5.7,5.53,6.549,8.826,6.549s8.828-.85,8.828-6.549a8.838,8.838,0,0,0-8.828-8.828A8.837,8.837,0,0,0-4231.1,267.367Zm18.792-10.251c0-2.382,1.931-5.98,4.841-5.98s4.84,3.6,4.84,5.98a4.845,4.845,0,0,1-4.84,4.84A4.846,4.846,0,0,1-4212.309,257.117Zm2.847,0a2,2,0,0,0,1.994,1.993,2,2,0,0,0,1.992-1.993c0-1.347-1.136-3.132-1.992-3.132S-4209.461,255.769-4209.461,257.116Zm-32.461,0c0-2.382,1.931-5.98,4.841-5.98s4.84,3.6,4.84,5.98a4.845,4.845,0,0,1-4.84,4.84A4.846,4.846,0,0,1-4241.922,257.117Zm2.848,0a2,2,0,0,0,1.993,1.993,2,2,0,0,0,1.993-1.993c0-1.347-1.136-3.132-1.993-3.132S-4239.074,255.769-4239.074,257.116Zm17.654-6.834c0-2.38,1.931-5.979,4.841-5.979s4.84,3.6,4.84,5.979a4.846,4.846,0,0,1-4.84,4.842A4.847,4.847,0,0,1-4221.42,250.282Zm2.847,0a2,2,0,0,0,1.994,1.993,2,2,0,0,0,1.994-1.993c0-1.347-1.136-3.132-1.994-3.132S-4218.573,248.935-4218.573,250.282Zm-14.237,0c0-2.38,1.931-5.979,4.84-5.979s4.841,3.6,4.841,5.979a4.847,4.847,0,0,1-4.841,4.842A4.846,4.846,0,0,1-4232.811,250.282Zm2.848,0a1.994,1.994,0,0,0,1.992,1.993,2,2,0,0,0,1.994-1.993c0-1.347-1.137-3.132-1.994-3.132S-4229.962,248.935-4229.962,250.282Zm-42.468-20.736a9.421,9.421,0,0,1-2.779-6.706,9.431,9.431,0,0,1,2.779-6.708,9.424,9.424,0,0,1,6.706-2.776,9.437,9.437,0,0,1,6.707,2.775l.07.071.07-.07a9.426,9.426,0,0,1,6.706-2.776,9.42,9.42,0,0,1,6.706,2.777,9.425,9.425,0,0,1,2.778,6.708,9.425,9.425,0,0,1-2.778,6.7l-13.482,13.483Zm2.2-11.213a6.33,6.33,0,0,0-1.868,4.507,6.326,6.326,0,0,0,1.868,4.506l11.283,11.284,11.282-11.284a6.327,6.327,0,0,0,1.868-4.5,6.331,6.331,0,0,0-1.868-4.508,6.333,6.333,0,0,0-4.506-1.868,6.333,6.333,0,0,0-4.506,1.868l-2.27,2.268-2.269-2.268a6.343,6.343,0,0,0-4.508-1.866A6.33,6.33,0,0,0-4270.23,218.333Zm113.05-128.247a2.414,2.414,0,0,1-2.41-2.41V84.1a4.7,4.7,0,0,1,4.7-4.69h3.4a11.465,11.465,0,0,1-2.356-6.6V72.75a15.847,15.847,0,0,1-9.743-4.095V80.827l.986,2.555a4.946,4.946,0,0,1-1.116,5.259,4.926,4.926,0,0,1-3.487,1.445h-15.533a2.819,2.819,0,0,1-2.815-2.82v-.314a6.62,6.62,0,0,1,1.709-4.453l3.67-4.086V73.259a1.325,1.325,0,0,1,1.323-1.323,1.326,1.326,0,0,1,1.329,1.323v5.665a1.338,1.338,0,0,1-.342.884l-4.014,4.458a4.025,4.025,0,0,0-1.029,2.686v.314a.167.167,0,0,0,.169.168h8.071l2.5-2.119a1.416,1.416,0,0,0,.492-1.073V73.263a3.821,3.821,0,0,1,1.125-2.715l5.3-5.3a1.322,1.322,0,0,1,1.84-.034l1.482,1.377a13.2,13.2,0,0,0,8.3,3.526,11.484,11.484,0,0,1,2.806-5.506,11.467,11.467,0,0,1,7.848-3.724,11.452,11.452,0,0,1,8.22,2.8l2.715,2.348a1.318,1.318,0,0,1,.13,1.864,1.318,1.318,0,0,1-1.864.135l-2.709-2.347a8.861,8.861,0,0,0-12.388.715,8.941,8.941,0,0,0,.429,12.466l.575.551h5.573a1.321,1.321,0,0,1,1.323,1.323,1.323,1.323,0,0,1-1.323,1.324H-4154.9a2.043,2.043,0,0,0-2.043,2.043v3.331h16.412a18.162,18.162,0,0,0,18.145-18.141,18.055,18.055,0,0,0-5.177-12.693l-5.458-5.574-.753.594a8.724,8.724,0,0,1-5.41,1.864,8.681,8.681,0,0,1-3.786-.859l-2.748-1.334-.942.188a8.687,8.687,0,0,1-7.863-2.385,8.72,8.72,0,0,1-.714-11.5l4.21-5.42a10.88,10.88,0,0,1-1.043-2.428l-.3-1.025a33.808,33.808,0,0,1-13.658,5.844c0,.077.005.151.005.223a8.368,8.368,0,0,1-8.361,8.36,8.185,8.185,0,0,1-1.5-.14l-1.648,4.9v.672h.576a8.376,8.376,0,0,1,8.365,8.366,8.375,8.375,0,0,1-8.365,8.365h-.576v2.308a1.326,1.326,0,0,1-1.329,1.324,1.326,1.326,0,0,1-1.323-1.324V47.694a1.285,1.285,0,0,1,.072-.42l3.318-9.867V36.46l-.021-8.441a.143.143,0,0,1,.021.014V23.7h-3.318a9.717,9.717,0,0,1-7.564-3.594l-2.737-3.362a4.318,4.318,0,0,1-.971-2.729V12.24a4.327,4.327,0,0,1,4.323-4.323h4.477l5.781-5.781a7.33,7.33,0,0,1,2.367-1.584,7.279,7.279,0,0,1,2.8-.551h8.33a7.27,7.27,0,0,1,4.937,1.927,12.519,12.519,0,0,1,4.028,9.183v1.381l4.812,16.517a8.127,8.127,0,0,0,1.989,3.4l15.581,15.915,6.284,6.424a20.63,20.63,0,0,1,5.849,12.654h4.433a5.955,5.955,0,0,0,5.946-5.946,5.911,5.911,0,0,0-2.251-4.655l-.9-.716a1.323,1.323,0,0,1-.216-1.859,1.328,1.328,0,0,1,1.863-.217l.9.72a8.538,8.538,0,0,1,3.25,6.727,8.6,8.6,0,0,1-8.593,8.593h-4.36a20.668,20.668,0,0,1-.295,2.815h4.655a11.419,11.419,0,0,0,11.408-11.408,11.359,11.359,0,0,0-4.312-8.935L-4116.5,46a1.419,1.419,0,0,0-1.039-.3,1.409,1.409,0,0,0-.942.526,1.407,1.407,0,0,0-.3,1.034,1.394,1.394,0,0,0,.526.942l2.894,2.3a1.326,1.326,0,0,1,.212,1.859,1.322,1.322,0,0,1-1.859.213l-2.894-2.295a4.017,4.017,0,0,1-1.507-2.714,4.01,4.01,0,0,1,.856-2.986,4,4,0,0,1,2.708-1.506,4.022,4.022,0,0,1,2.986.85l8.215,6.525a13.982,13.982,0,0,1,5.313,11.006,14.072,14.072,0,0,1-14.056,14.059h-5.3a20.83,20.83,0,0,1-19.84,14.568Zm-11.5-17.663a1.166,1.166,0,0,0-.353.84V84.241a4.044,4.044,0,0,1-1.424,3.086l-.126.107h3.376a2.269,2.269,0,0,0,1.613-.666,2.287,2.287,0,0,0,.517-2.435l-1.072-2.786a1.328,1.328,0,0,1-.087-.474v-11.1Zm-8.843-9.756h.576a5.723,5.723,0,0,0,5.718-5.718,5.723,5.723,0,0,0-5.718-5.719h-.576Zm32.563-13.953,3.148,1.526a6.091,6.091,0,0,0,6.4-.7l.531-.421-14.47-14.784-3.8,4.878a6.075,6.075,0,0,0,.5,8.008,6.04,6.04,0,0,0,5.473,1.657l1.376-.274a1.312,1.312,0,0,1,.258-.025A1.32,1.32,0,0,1-4144.96,48.713Zm-29.177-11.089a1.441,1.441,0,0,1-.068.425l-.812,2.414a5.5,5.5,0,0,0,.637.039,5.721,5.721,0,0,0,5.709-5.554,32.32,32.32,0,0,1-3.429.179h-2.038Zm0-8.955v3.81h2.038a31.106,31.106,0,0,0,18.942-6.471l-1.216-4.173A33.794,33.794,0,0,1-4174.137,28.67Zm-14.591-16.43v1.772a1.682,1.682,0,0,0,.376,1.057l2.739,3.362a7.076,7.076,0,0,0,5.51,2.619h4.641a1.325,1.325,0,0,1,1.324,1.323v3.647a31.1,31.1,0,0,0,18.473-6.525l.5-.386-1.651-5.675-6.362,4.51a4.438,4.438,0,0,1-2.525.792,4.363,4.363,0,0,1-2.043-.5,4.4,4.4,0,0,1-2.367-3.906V12.191a1.326,1.326,0,0,1,1.323-1.324,1.326,1.326,0,0,1,1.325,1.324v2.134a1.73,1.73,0,0,0,.946,1.56,1.733,1.733,0,0,0,1.82-.111l7.679-5.449a9.861,9.861,0,0,0-3.133-6.448,4.632,4.632,0,0,0-3.146-1.231h-4.167v3.9a1.326,1.326,0,0,1-1.325,1.323,1.325,1.325,0,0,1-1.323-1.323v-3.9h-1.516a4.622,4.622,0,0,0-3.291,1.362l-6.172,6.168a1.305,1.305,0,0,1-.932.392h-5.027A1.676,1.676,0,0,0-4188.728,12.24Zm-28.939,48.837a2.946,2.946,0,0,1,2.946-2.946,2.946,2.946,0,0,1,2.946,2.946,2.946,2.946,0,0,1-2.946,2.946A2.946,2.946,0,0,1-4217.667,61.077Zm10.513,1.208a1.206,1.206,0,0,1-1.208-1.208,1.205,1.205,0,0,1,1.208-1.207h20.63a1.205,1.205,0,0,1,1.206,1.207,1.206,1.206,0,0,1-1.206,1.208Zm-10.513-13.69a2.946,2.946,0,0,1,2.946-2.946,2.946,2.946,0,0,1,2.946,2.946,2.946,2.946,0,0,1-2.946,2.946A2.946,2.946,0,0,1-4217.667,48.6Zm10.513,1.208a1.207,1.207,0,0,1-1.208-1.208,1.206,1.206,0,0,1,1.208-1.208h20.63a1.206,1.206,0,0,1,1.206,1.208,1.207,1.207,0,0,1-1.206,1.208Zm-10.513-13.69a2.946,2.946,0,0,1,2.946-2.945,2.946,2.946,0,0,1,2.946,2.945,2.947,2.947,0,0,1-2.946,2.947A2.947,2.947,0,0,1-4217.667,36.113Zm10.513,1.209a1.207,1.207,0,0,1-1.208-1.209,1.206,1.206,0,0,1,1.208-1.207h20.63a1.206,1.206,0,0,1,1.206,1.207,1.206,1.206,0,0,1-1.206,1.209Zm30.349-27.006a1.727,1.727,0,0,1,1.727-1.727,1.726,1.726,0,0,1,1.727,1.727,1.727,1.727,0,0,1-1.727,1.727A1.728,1.728,0,0,1-4176.8,10.316Z" transform="translate(4289.5 0.5)" fill="#f1c544" stroke="rgba(0,0,0,0)" stroke-miterlimit="10" stroke-width="1"/>
</svg>
